<svg xmlns="http://www.w3.org/2000/svg" xmlns:xlink="http://www.w3.org/1999/xlink" width="32" height="32" viewBox="0 0 32 32"><defs><style>.a{fill:#272727;}.b{clip-path:url(#a);}</style><clipPath id="a"><rect class="a" width="32" height="32" transform="translate(-0.356 -0.356)"/></clipPath></defs><g class="b" transform="translate(0.356 0.356)"><g transform="translate(0 2.462)"><path class="a" d="M30.824,12.31a2.162,2.162,0,0,0-1.7-.816H23.1L19.83,4.012a.917.917,0,1,0-1.68.734L21.1,11.494H10.191l2.947-6.748a.917.917,0,1,0-1.68-.734L8.191,11.494H2.165a2.162,2.162,0,0,0-1.7.816,2.111,2.111,0,0,0-.411,1.8L3.272,28.16a2.148,2.148,0,0,0,2.111,1.667H25.905a2.148,2.148,0,0,0,2.111-1.667L31.235,14.1a2.111,2.111,0,0,0-.411-1.8ZM25.905,27.994H5.383a.328.328,0,0,1-.324-.243L1.841,13.7a.28.28,0,0,1,.057-.243.333.333,0,0,1,.267-.125H7.39l-.24.55a.917.917,0,1,0,1.68.734l.561-1.284H21.9l.561,1.284a.917.917,0,0,0,1.68-.734l-.24-.55h5.225a.333.333,0,0,1,.267.125.28.28,0,0,1,.057.243L26.23,27.751a.328.328,0,0,1-.324.243Z" transform="translate(0 -3.462)"/><path class="a" d="M13.893,22.921a.917.917,0,0,0-.917.917V30.56a.917.917,0,1,0,1.833,0V23.838A.917.917,0,0,0,13.893,22.921Z" transform="translate(-3.749 -9.083)"/><path class="a" d="M21.628,22.921a.917.917,0,0,0-.917.917V30.56a.917.917,0,1,0,1.833,0V23.838A.917.917,0,0,0,21.628,22.921Z" transform="translate(-5.983 -9.083)"/><path class="a" d="M29.362,22.921a.917.917,0,0,0-.917.917V30.56a.917.917,0,1,0,1.833,0V23.838A.917.917,0,0,0,29.362,22.921Z" transform="translate(-8.218 -9.083)"/></g></g></svg>