<svg xmlns="http://www.w3.org/2000/svg" xmlns:xlink="http://www.w3.org/1999/xlink" width="46" height="46" viewBox="0 0 46 46"><defs><style>.a{fill:#fff;}.b{clip-path:url(#a);}</style><clipPath id="a"><rect class="a" width="46" height="46" transform="translate(0.169)"/></clipPath></defs><g class="b" transform="translate(-0.169)"><g transform="translate(0.178 -0.098)"><g transform="translate(29.412 20.391)"><circle class="a" cx="0.902" cy="0.902" r="0.902"/></g><g transform="translate(16.814 25.15)"><path class="a" d="M28.366,21.786a.9.9,0,0,0-1.025.76c-.247,1.665-1.654,3.046-3.765,3.694-2.256.693-5.388.461-7.3-1.62a.9.9,0,0,0-1.329,1.22,7.951,7.951,0,0,0,4.344,2.374,9.62,9.62,0,0,0,1.889.184,10.023,10.023,0,0,0,2.924-.434c2.793-.857,4.669-2.784,5.02-5.155A.9.9,0,0,0,28.366,21.786Z" transform="translate(-14.71 -21.776)"/></g><path class="a" d="M43.161,17.18a11.171,11.171,0,0,0-6.628-3.629A51.189,51.189,0,0,0,43,8.51c2.446-2.331,3.266-3.968,2.581-5.154-.762-1.32-2.962-1.311-6.923.029A69.289,69.289,0,0,0,26.913,8.923c-.73.421-1.452.852-2.16,1.287a4.846,4.846,0,0,1,.979-4.64,3.449,3.449,0,0,0,.505-3.643A3.644,3.644,0,0,0,22.818,0h-.042A22.4,22.4,0,0,0,7.616,6.115,22.739,22.739,0,0,0,.243,20.834,23.175,23.175,0,0,0,23.249,46.2a24.615,24.615,0,0,0,9.662-1.883,21.743,21.743,0,0,0,7.116-4.85,21.432,21.432,0,0,0,4.4-6.585A19.1,19.1,0,0,0,46,25.749,12.584,12.584,0,0,0,43.161,17.18Zm-18.3-4.91c.955-.6,1.95-1.2,2.956-1.784a69.561,69.561,0,0,1,10.951-5.23c3.475-1.23,4.9-1.15,5.229-.991-.029.21-.289,1.144-2.57,3.244A57.409,57.409,0,0,1,33.6,13.315c-.994.63-2.029,1.255-3.075,1.859-1.442.832-2.883,1.611-4.3,2.324a13.518,13.518,0,0,0-2.559-4.46Q24.253,12.652,24.859,12.27ZM24.589,18.3a46.267,46.267,0,0,1-6.752,2.664,4.5,4.5,0,0,0-1.362-2.4,46.4,46.4,0,0,1,5.681-4.51A11.763,11.763,0,0,1,24.589,18.3Zm19.6,7.425c-.129,8.978-8.172,18.669-20.943,18.669A21.3,21.3,0,0,1,22.776,1.8h.041a1.872,1.872,0,0,1,1.8.908,1.644,1.644,0,0,1-.3,1.74A6.623,6.623,0,0,0,23.2,11.188c-.484.312-.959.625-1.418.935l-.006,0a48.06,48.06,0,0,0-6.9,5.482,4.487,4.487,0,0,0-3.708.363C9.289,19.055,6.828,24.1,6.353,25.1A.9.9,0,0,0,7.1,26.388c.5.04,1.915.143,3.491.143,1.913,0,4.061-.15,5.088-.744a4.5,4.5,0,0,0,2.152-2.951,47.731,47.731,0,0,0,8.235-3.242c1.754-.854,3.558-1.815,5.363-2.856.915-.529,1.82-1.073,2.7-1.623h.016C41.66,15.331,44.263,20.736,44.191,25.723Zm-28.07-3.674a2.7,2.7,0,0,1-1.349,2.175c-.853.493-3.785.559-6.191.449,1.108-2.139,2.63-4.644,3.485-5.137a2.708,2.708,0,0,1,4.056,2.514Z" transform="translate(-0.152)"/><g transform="translate(12.269 5.58)"><path class="a" d="M14.384,4.831A3.609,3.609,0,1,0,17.993,8.44,3.613,3.613,0,0,0,14.384,4.831Zm0,5.414a1.8,1.8,0,1,1,1.8-1.8A1.807,1.807,0,0,1,14.384,10.245Z" transform="translate(-10.775 -4.831)"/></g><g transform="translate(7.758 29.824)"><path class="a" d="M10.478,25.824a3.609,3.609,0,1,0,3.609,3.609A3.613,3.613,0,0,0,10.478,25.824Zm0,5.414a1.8,1.8,0,1,1,1.8-1.8A1.807,1.807,0,0,1,10.478,31.238Z" transform="translate(-6.869 -25.824)"/></g><g transform="translate(16.781 35.238)"><path class="a" d="M18.29,30.512A3.609,3.609,0,1,0,21.9,34.121,3.613,3.613,0,0,0,18.29,30.512Zm0,5.414a1.8,1.8,0,1,1,1.8-1.8A1.807,1.807,0,0,1,18.29,35.925Z" transform="translate(-14.681 -30.512)"/></g><g transform="translate(27.608 33.433)"><path class="a" d="M27.665,28.949a3.609,3.609,0,1,0,3.609,3.609A3.613,3.613,0,0,0,27.665,28.949Zm0,5.414a1.8,1.8,0,1,1,1.8-1.8A1.807,1.807,0,0,1,27.665,34.363Z" transform="translate(-24.056 -28.949)"/></g><g transform="translate(34.826 24.411)"><path class="a" d="M33.915,21.137a3.609,3.609,0,1,0,3.609,3.609A3.613,3.613,0,0,0,33.915,21.137Zm0,5.414a1.8,1.8,0,1,1,1.8-1.8A1.807,1.807,0,0,1,33.915,26.55Z" transform="translate(-30.306 -21.137)"/></g></g></g></svg>