<svg xmlns="http://www.w3.org/2000/svg" xmlns:xlink="http://www.w3.org/1999/xlink" width="46" height="46" viewBox="0 0 46 46"><defs><style>.a{fill:#fff;}.b{clip-path:url(#a);}</style><clipPath id="a"><rect class="a" width="46" height="46"/></clipPath></defs><g class="b"><g transform="translate(4.389 -0.098)"><g transform="translate(0)"><path class="a" d="M41.512,40.132,36.666,33.9A7.015,7.015,0,0,0,40.5,31.063c1.141-1.973.625-4.381.126-6.706a18.318,18.318,0,0,1-.539-3.648,18.312,18.312,0,0,1,.539-3.651c.5-2.327,1.016-4.734-.126-6.7-1.182-2.042-3.562-2.8-5.864-3.528a17.057,17.057,0,0,1-3.311-1.3,16.181,16.181,0,0,1-2.653-2.151C26.965,1.794,25.028,0,22.564,0s-4.4,1.794-6.109,3.379A16.185,16.185,0,0,1,13.8,5.53a17.053,17.053,0,0,1-3.31,1.293c-2.3.73-4.682,1.485-5.864,3.528C3.487,12.324,4,14.732,4.5,17.057a18.311,18.311,0,0,1,.538,3.651A18.312,18.312,0,0,1,4.5,24.36c-.5,2.327-1.016,4.734.126,6.7A7.015,7.015,0,0,0,8.466,33.9L3.616,40.132a.8.8,0,0,0,.728,1.279l5.695-.711,1.406,4.919a.8.8,0,0,0,.614.563.812.812,0,0,0,.151.014.8.8,0,0,0,.629-.307l5.086-6.542a7.365,7.365,0,0,0,4.639,2.071A7.365,7.365,0,0,0,27.2,39.346l5.086,6.54a.8.8,0,0,0,.629.31.812.812,0,0,0,.151-.014.8.8,0,0,0,.614-.563L35.089,40.7l5.695.711a.8.8,0,0,0,.728-1.279Zm-28.968,3.54-1.162-4.067a.8.8,0,0,0-.864-.571l-4.46.558,4-5.139.44.141A17.052,17.052,0,0,1,13.8,35.887a16.181,16.181,0,0,1,2.653,2.151l.274.253Zm10.02-3.848c-1.84,0-3.387-1.434-5.027-2.953A17.557,17.557,0,0,0,14.6,34.508a18.468,18.468,0,0,0-3.626-1.434c-2.105-.668-4.094-1.3-4.967-2.808-.833-1.441-.4-3.449.053-5.575a19.5,19.5,0,0,0,.575-3.982,19.5,19.5,0,0,0-.574-3.982c-.456-2.126-.886-4.134-.053-5.575.876-1.509,2.862-2.139,4.967-2.808A18.473,18.473,0,0,0,14.6,6.909a17.556,17.556,0,0,0,2.937-2.363c1.64-1.52,3.188-2.953,5.027-2.953s3.387,1.434,5.027,2.953a17.557,17.557,0,0,0,2.938,2.363,18.468,18.468,0,0,0,3.626,1.434c2.105.668,4.094,1.3,4.967,2.808.833,1.441.4,3.449-.053,5.575a19.5,19.5,0,0,0-.575,3.982,19.5,19.5,0,0,0,.574,3.982c.456,2.126.886,4.134.053,5.575-.876,1.509-2.862,2.139-4.967,2.808a18.473,18.473,0,0,0-3.626,1.434,17.556,17.556,0,0,0-2.937,2.363C25.951,38.391,24.4,39.824,22.564,39.824Zm12.05-.79a.8.8,0,0,0-.864.571l-1.166,4.067L28.4,38.292l.274-.253a16.185,16.185,0,0,1,2.652-2.151,17.053,17.053,0,0,1,3.31-1.293l.44-.141,4,5.139Z" transform="translate(-3.448)"/></g><g transform="translate(4.779 6.372)"><path class="a" d="M21.923,5.517A14.337,14.337,0,1,0,36.26,19.854,14.337,14.337,0,0,0,21.923,5.517Zm0,27.08A12.744,12.744,0,1,1,34.667,19.854,12.744,12.744,0,0,1,21.923,32.6Z" transform="translate(-7.586 -5.517)"/></g><g transform="translate(9.62 10.989)"><path class="a" d="M30.464,15.908a1.593,1.593,0,0,0-1.287-.656H24.3l-1.513-4.641a1.593,1.593,0,0,0-3.027,0l-1.509,4.641h-4.88a1.593,1.593,0,0,0-.938,2.881L16.38,21l-1.508,4.641a1.593,1.593,0,0,0,2.452,1.781l3.95-2.867,3.948,2.867a1.593,1.593,0,0,0,2.452-1.781L26.166,21l3.947-2.867A1.593,1.593,0,0,0,30.464,15.908Zm-5.7,4.145a.8.8,0,0,0-.289.891l1.687,5.191-4.417-3.208a.8.8,0,0,0-.936,0L16.39,26.135l1.686-5.191a.8.8,0,0,0-.289-.89l-4.416-3.208h5.458a.8.8,0,0,0,.757-.55L21.274,11.1l1.687,5.191a.8.8,0,0,0,.757.55h5.458Z" transform="translate(-11.777 -9.515)"/></g></g></g></svg>