<svg xmlns="http://www.w3.org/2000/svg" xmlns:xlink="http://www.w3.org/1999/xlink" width="46" height="46" viewBox="0 0 46 46"><defs><style>.a{fill:#fff;}.b{clip-path:url(#a);}</style><clipPath id="a"><rect class="a" width="46" height="46"/></clipPath></defs><g class="b"><g transform="translate(2.742 -0.098)"><g transform="translate(29.775 35.73)"><path class="a" d="M28.715,30.938a.9.9,0,1,0,.9.9A.9.9,0,0,0,28.715,30.938Z" transform="translate(-27.813 -30.938)"/></g><path class="a" d="M34.93,32.812l-4.288-1.429L29.1,28.3a9.882,9.882,0,0,0,2.675-5.228l.192-1.151h1.642a2.71,2.71,0,0,0,2.707-2.707V13.534a13.534,13.534,0,1,0-27.068,0v5.684a2.711,2.711,0,0,0,1.8,2.552v1.057a2.71,2.71,0,0,0,2.707,2.707h.792a9.788,9.788,0,0,0,1.513,2.344c.128.147.261.289.4.428l-1.539,3.077-4.289,1.429C5.65,34.475,2.031,39.724,2.031,45.294a.9.9,0,0,0,.9.9h39.7a.9.9,0,0,0,.9-.9C43.536,39.724,39.916,34.475,34.93,32.812Zm-.417-13.594a.9.9,0,0,1-.9.9H32.234c.229-1.777.382-3.667.444-5.529,0-.053,0-.1,0-.155h1.831Zm-22.557.9a.9.9,0,0,1-.9-.9V14.436h1.831q0,.141.01.284v.01h0c.063,1.811.214,3.652.438,5.39H11.956Zm1.8,3.609a.9.9,0,0,1-.9-.9v-.9h.74l.192,1.151c.037.219.082.437.134.653Zm-.9-11.1H11.088a11.73,11.73,0,0,1,23.39,0H32.707a9.138,9.138,0,0,0-9.116-9.023H21.976A9.139,9.139,0,0,0,12.86,12.632Zm9.116-7.218h1.615A7.337,7.337,0,0,1,30.9,12.759c0,.284,0,.531-.007.756,0,0,0,.006,0,.009l-1.129-.161a14.5,14.5,0,0,1-8.151-4.076.9.9,0,0,0-.638-.264A8.163,8.163,0,0,0,14.7,11.992,7.334,7.334,0,0,1,21.976,5.414ZM15.794,23.73a51.573,51.573,0,0,1-1.083-8.757l1.214-1.619a6.351,6.351,0,0,1,4.7-2.516,16.32,16.32,0,0,0,8.891,4.312l1.328.19c-.089,1.884-.27,3.775-.53,5.514v0c-.083.559-.148.919-.314,1.924a7.664,7.664,0,0,1-5.439,6.164,7.1,7.1,0,0,1-7.969-3.409h1.839a2.711,2.711,0,0,0,2.552,1.8h1.8a2.707,2.707,0,0,0,0-5.414h-1.8a2.708,2.708,0,0,0-2.553,1.8ZM20.9,30.769a9.05,9.05,0,0,0,3.356.076L22.665,32.53Zm.521,3.073-2.862,3.026a34.377,34.377,0,0,1-2.02-4.684l1.075-2.149ZM27.8,29.729l1.227,2.455A34.368,34.368,0,0,1,27,36.87l-3.063-3.063Zm-7.72-5.1a.9.9,0,0,1,.9-.9h1.8a.9.9,0,0,1,0,1.8h-1.8A.9.9,0,0,1,20.077,24.632Zm-16.2,19.76a11.4,11.4,0,0,1,7.336-9.867l3.8-1.266a36.169,36.169,0,0,0,2.568,5.571l.005.009h0a36.179,36.179,0,0,0,2.47,3.771l1.11,1.782Zm18.912-.8L21.56,41.623q-.021-.033-.044-.064a34.4,34.4,0,0,1-2.033-3.037l3.218-3.4,3.391,3.391a34.364,34.364,0,0,1-2.04,3.049C24.007,41.617,24.07,41.524,22.783,43.587Zm1.625.8,1.11-1.782a36.165,36.165,0,0,0,2.487-3.8l.013-.024,0,0a36.14,36.14,0,0,0,2.541-5.523l3.8,1.266a11.4,11.4,0,0,1,7.336,9.867H24.408Z" transform="translate(-2.031 0)"/><g transform="translate(32.945 37.452)"><path class="a" d="M34.564,35.717a9.021,9.021,0,0,0-2.554-3.1.9.9,0,0,0-1.1,1.43,7.205,7.205,0,0,1,2.04,2.477.9.9,0,0,0,1.614-.806Z" transform="translate(-30.558 -32.429)"/></g></g></g></svg>