<svg xmlns="http://www.w3.org/2000/svg" xmlns:xlink="http://www.w3.org/1999/xlink" width="46" height="46" viewBox="0 0 46 46"><defs><style>.a{fill:#fff;}.b{clip-path:url(#a);}</style><clipPath id="a"><rect class="a" width="46" height="46" transform="translate(-0.415)"/></clipPath></defs><g class="b" transform="translate(0.415)"><g transform="translate(6.827 -0.098)"><path class="a" d="M.16,20.963a2.41,2.41,0,0,0,.7,2.684c1.469,1.47,4.491,6.778,5.987,10.518a21.644,21.644,0,0,0,4.962,6.706A3.821,3.821,0,0,1,12.947,43.6v.282a2.309,2.309,0,0,0,2.309,2.309H27.571a2.309,2.309,0,0,0,2.309-2.309V41.52A.706.706,0,0,1,30.085,41c2.841-2.6,2.873-6.934,2.873-7.118V21.694a3.161,3.161,0,0,0-2.855-3.2,3.077,3.077,0,0,0-1.763.419v-1.2a3.061,3.061,0,0,0-4.651-2.633A3.043,3.043,0,0,0,19.1,12.755V11.481A6.08,6.08,0,0,0,22.183,6.17a6.158,6.158,0,0,0-12.315,0,6.081,6.081,0,0,0,3.079,5.311V23.873a8.516,8.516,0,0,1-.366,2.684.778.778,0,0,1-.555.517.742.742,0,0,1-.693-.182,10.94,10.94,0,0,1-1.592-1.907c-1.336-2-4.7-5.73-6.8-5.73A3.015,3.015,0,0,0,.16,20.963ZM11.407,6.17a4.618,4.618,0,1,1,9.236,0A4.571,4.571,0,0,1,19.1,9.617V6.17a3.079,3.079,0,1,0-6.158,0V9.617A4.573,4.573,0,0,1,11.407,6.17ZM8.458,25.839a12.506,12.506,0,0,0,1.819,2.174,2.277,2.277,0,0,0,2.123.554,2.32,2.32,0,0,0,1.639-1.518,10.025,10.025,0,0,0,.447-3.177V6.17a1.539,1.539,0,1,1,3.079,0V22.333a.77.77,0,1,0,1.539,0V15.406a1.54,1.54,0,0,1,3.079,0v6.927a.77.77,0,1,0,1.539,0V17.715a1.539,1.539,0,0,1,3.079,0V23.1a.77.77,0,0,0,1.539,0V21.564a1.526,1.526,0,0,1,.452-1.088,1.557,1.557,0,0,1,1.2-.448,1.639,1.639,0,0,1,1.426,1.666V33.879c0,.038-.039,3.849-2.374,5.982a2.246,2.246,0,0,0-.705,1.659v2.365a.77.77,0,0,1-.77.77H15.256a.77.77,0,0,1-.77-.77V43.6a5.372,5.372,0,0,0-1.608-3.836,20.681,20.681,0,0,1-4.6-6.174C6.69,29.635,3.556,24.169,1.945,22.559c-.366-.366-.489-.705-.364-1.007a1.518,1.518,0,0,1,1.359-.758c1.046,0,3.882,2.593,5.517,5.046Zm0,0" transform="translate(-0.006 0.002)"/><path class="a" d="M8.958,12.744a.77.77,0,0,0,.561-1.3A7.678,7.678,0,0,1,9.182,1.274.77.77,0,1,0,8,.293,9.219,9.219,0,0,0,8.4,12.5a.77.77,0,0,0,.561.242Zm0,0" transform="translate(0.904 0)"/><path class="a" d="M20.29,10.705a.77.77,0,0,0,1.036-.334A9.2,9.2,0,0,0,20.226.293a.77.77,0,1,0-1.186.981,7.667,7.667,0,0,1,.917,8.4.769.769,0,0,0,.333,1.036Zm0,0" transform="translate(2.913 0)"/></g></g></svg>