<svg xmlns="http://www.w3.org/2000/svg" xmlns:xlink="http://www.w3.org/1999/xlink" width="46" height="46" viewBox="0 0 46 46"><defs><style>.a{fill:#fff;}.b{clip-path:url(#a);}</style><clipPath id="a"><rect class="a" width="46" height="46" transform="translate(-0.169)"/></clipPath></defs><g class="b" transform="translate(0.169)"><g transform="translate(-0.199 6.214)"><g transform="translate(4.474 23.142)"><rect class="a" width="26.827" height="1.491"/></g><g transform="translate(24.59 13.448)"><path class="a" d="M27.257,17.109a2.922,2.922,0,0,0-1.482.409,2.983,2.983,0,1,0,0,5.147,2.922,2.922,0,0,0,1.482.409,2.983,2.983,0,1,0,0-5.966Zm-2.6,4.42a1.385,1.385,0,0,1-.382.055,1.491,1.491,0,0,1,0-2.983,1.759,1.759,0,0,1,.382.055,2.894,2.894,0,0,0,0,2.874Zm2.6.055a1.491,1.491,0,1,1,1.491-1.491A1.5,1.5,0,0,1,27.257,21.584Z" transform="translate(-21.292 -17.109)"/></g><path class="a" d="M44.641,15.467,13.377,5.591a2.135,2.135,0,0,0-2.8,1.455L8,15.185H2.237A2.247,2.247,0,0,0,0,17.422V36.8a2.235,2.235,0,0,0,2.237,2.237H35.029a2.222,2.222,0,0,0,1.864-1.009,10.443,10.443,0,0,0,1.237.282,2.216,2.216,0,0,0,2.128-1.564L46.1,18.267A2.16,2.16,0,0,0,44.641,15.467ZM11.094,10.338l15.359,4.847h-9.9l-6.357-2.01ZM9.749,14.6l1.864.591H9.567ZM35.775,36.8h-.009a.749.749,0,0,1-.746.746H2.237a.749.749,0,0,1-.746-.746V17.422a.749.749,0,0,1,.746-.746H35.029a.749.749,0,0,1,.746.746V36.8Zm3.065-.5a.752.752,0,0,1-.937.482l-.646-.2V23.3l5.174,1.637Zm4.038-12.795-5.62-1.773V18.6l6.52,2.055Zm1.8-5.684-.446,1.419-7.011-2.21a2.234,2.234,0,0,0-2.192-1.837H31.4L11.54,8.919,11.986,7.5a.749.749,0,0,1,.937-.482l31.264,9.867A.7.7,0,0,1,44.678,17.822Z" transform="translate(0 -5.465)"/></g></g></svg>