<svg xmlns="http://www.w3.org/2000/svg" xmlns:xlink="http://www.w3.org/1999/xlink" width="46" height="46" viewBox="0 0 46 46"><defs><style>.a{fill:#fff;}.b{clip-path:url(#a);}</style><clipPath id="a"><rect class="a" width="46" height="46" transform="translate(0.415)"/></clipPath></defs><g class="b" transform="translate(-0.415)"><g transform="translate(-0.401 6.446)"><g transform="translate(6.16 23.868)"><path class="a" d="M9.953,26.333a4.62,4.62,0,1,0,4.62,4.62A4.624,4.624,0,0,0,9.953,26.333Zm0,7.7a3.08,3.08,0,1,1,3.08-3.08A3.083,3.083,0,0,1,9.953,34.033Z" transform="translate(-5.333 -26.333)"/></g><g transform="translate(32.337 23.868)"><path class="a" d="M32.62,26.333a4.62,4.62,0,1,0,4.62,4.62A4.624,4.624,0,0,0,32.62,26.333Zm0,7.7a3.08,3.08,0,1,1,3.08-3.08A3.083,3.083,0,0,1,32.62,34.033Z" transform="translate(-28 -26.333)"/></g><g transform="translate(29.258 8.469)"><path class="a" d="M42.15,24.133,35.22,13.353A.77.77,0,0,0,34.573,13H26.1a.77.77,0,0,0-.77.77V33.018a.769.769,0,0,0,.77.77h3.08v-1.54h-2.31V14.54h7.279l6.58,10.236v7.473h-3.85v1.54H41.5a.769.769,0,0,0,.77-.77V24.549A.768.768,0,0,0,42.15,24.133Z" transform="translate(-25.333 -13)"/></g><g transform="translate(32.337 11.549)"><path class="a" d="M29.54,22.6v-5.39H35.7v-1.54H28.77a.77.77,0,0,0-.77.77v6.929a.769.769,0,0,0,.77.77H40.319V22.6H29.54Z" transform="translate(-28 -15.667)"/></g><g transform="translate(0 3.08)"><path class="a" d="M30.027,8.333H.77A.77.77,0,0,0,0,9.1V33.741a.77.77,0,0,0,.77.77h6.16v-1.54H1.54V9.873H29.258v23.1H14.629v1.54h15.4a.769.769,0,0,0,.77-.77V9.1A.77.77,0,0,0,30.027,8.333Z" transform="translate(0 -8.333)"/></g><g transform="translate(42.346 24.638)"><rect class="a" width="3.08" height="1.54"/></g><g transform="translate(10.009 27.718)"><rect class="a" width="1.54" height="1.54"/></g><g transform="translate(36.187 27.718)"><rect class="a" width="1.54" height="1.54"/></g><g transform="translate(3.08)"><rect class="a" width="10.779" height="1.54"/></g><rect class="a" width="1.54" height="1.54"/></g></g></svg>