<svg xmlns="http://www.w3.org/2000/svg" xmlns:xlink="http://www.w3.org/1999/xlink" width="15.84" height="15.84" viewBox="0 0 15.84 15.84"><defs><style>.a{fill:#fff;}.b{clip-path:url(#a);}</style><clipPath id="a"><rect class="a" width="15.84" height="15.84"/></clipPath></defs><g class="b"><g transform="translate(0 0.001)"><g transform="translate(0 0)"><path class="a" d="M9.665,7.92,15.587,2a.868.868,0,0,0,0-1.225L15.068.254a.869.869,0,0,0-1.225,0L7.92,6.176,2,.254a.868.868,0,0,0-1.225,0L.253.772A.867.867,0,0,0,.253,2L6.176,7.92.253,13.843a.869.869,0,0,0,0,1.225l.519.519a.868.868,0,0,0,1.225,0L7.92,9.664l5.922,5.922a.86.86,0,0,0,.612.253h0a.86.86,0,0,0,.613-.253l.519-.519a.869.869,0,0,0,0-1.225Z" transform="translate(0 -0.001)"/></g></g></g></svg>