<svg xmlns="http://www.w3.org/2000/svg" xmlns:xlink="http://www.w3.org/1999/xlink" width="22" height="26.805" viewBox="0 0 22 26.805"><defs><style>.a,.c{fill:#fff;}.b{clip-path:url(#a);}.c{stroke:#fff;}</style><clipPath id="a"><rect class="a" width="22" height="22" transform="translate(396 1626)"/></clipPath></defs><g transform="translate(-396 -1621.195)"><g class="b"><g transform="translate(396 1626)"><path class="a" d="M17.419,15.581a2.743,2.743,0,1,0,2.743,2.743A2.746,2.746,0,0,0,17.419,15.581Zm0,3.84a1.1,1.1,0,1,1,1.1-1.1A1.1,1.1,0,0,1,17.419,19.421Z"/><path class="a" d="M21.825,4.979a.822.822,0,0,0-.648-.316H5.08l-.741-3.1a.823.823,0,0,0-.8-.632H.823a.823.823,0,1,0,0,1.646H2.889L5.564,13.769a.823.823,0,0,0,.8.632H19.175a.823.823,0,0,0,.8-.625l2-8.092A.824.824,0,0,0,21.825,4.979Zm-3.294,7.776H7.014L5.473,6.309H20.126Z"/><path class="a" d="M7.461,15.581A2.743,2.743,0,1,0,10.2,18.324,2.746,2.746,0,0,0,7.461,15.581Zm0,3.84a1.1,1.1,0,1,1,1.1-1.1A1.1,1.1,0,0,1,7.461,19.421Z"/></g></g><path class="c" d="M4.18-8.168H6.631v.821H4.18v2.534H3.353V-7.347H.914v-.821H3.353v-2.546H4.18Z" transform="translate(409.365 1632.409)"/></g></svg>