<?xml version="1.0"?>
<svg xmlns="http://www.w3.org/2000/svg" width="512px" height="512px" viewBox="0 0 128 128"><g><g><path d="M122.737,113.9l-6.364-6.364a1.75,1.75,0,0,0-2.475,2.474l3.377,3.377H14.614V10.725L17.99,14.1a1.75,1.75,0,0,0,2.475-2.475L14.1,5.263a1.749,1.749,0,0,0-2.475,0L5.263,11.626A1.75,1.75,0,0,0,7.737,14.1l3.377-3.376V115.136a1.749,1.749,0,0,0,1.75,1.75H117.275l-3.377,3.377a1.75,1.75,0,1,0,2.475,2.474l6.364-6.363a1.749,1.749,0,0,0,0-2.475Z" data-original="#000000" class="active-path" data-old_color="#000000" fill="#FFFFFF"/><path d="M24.19,78.75a1.832,1.832,0,0,0,.311-.027C43.148,75.378,90.874,46.538,109,16.089l1.051,4.405a1.75,1.75,0,0,0,1.7,1.344,1.751,1.751,0,0,0,1.7-2.156l-2.088-8.754a1.751,1.751,0,0,0-2.108-1.3l-8.755,2.088a1.75,1.75,0,0,0,.812,3.405l4.87-1.162c-17.756,30.262-66.029,58.4-82.3,61.315a1.75,1.75,0,0,0,.306,3.473Z" data-original="#000000" class="active-path" data-old_color="#000000" fill="#FFFFFF"/><path d="M34.333,84.25A1.75,1.75,0,0,0,32.583,86v18.821a1.75,1.75,0,0,0,1.75,1.75h9a1.75,1.75,0,0,0,1.75-1.75V86a1.75,1.75,0,0,0-1.75-1.75Zm7.25,18.821h-5.5V87.75h5.5Z" data-original="#000000" class="active-path" data-old_color="#000000" fill="#FFFFFF"/><path d="M55.091,72.25A1.75,1.75,0,0,0,53.341,74v30.821a1.75,1.75,0,0,0,1.75,1.75h9a1.75,1.75,0,0,0,1.75-1.75V74a1.75,1.75,0,0,0-1.75-1.75Zm7.25,30.821h-5.5V75.75h5.5Z" data-original="#000000" class="active-path" data-old_color="#000000" fill="#FFFFFF"/><path d="M75.849,60.25A1.75,1.75,0,0,0,74.1,62v42.821a1.75,1.75,0,0,0,1.75,1.75h9a1.751,1.751,0,0,0,1.75-1.75V62a1.751,1.751,0,0,0-1.75-1.75Zm7.25,42.821H77.6V63.75h5.5Z" data-original="#000000" class="active-path" data-old_color="#000000" fill="#FFFFFF"/><path d="M96.606,48.25A1.751,1.751,0,0,0,94.856,50v54.821a1.751,1.751,0,0,0,1.75,1.75h9a1.75,1.75,0,0,0,1.75-1.75V50a1.75,1.75,0,0,0-1.75-1.75Zm7.25,54.821h-5.5V51.75h5.5Z" data-original="#000000" class="active-path" data-old_color="#000000" fill="#FFFFFF"/></g></g> </svg>
