<svg xmlns="http://www.w3.org/2000/svg" xmlns:xlink="http://www.w3.org/1999/xlink" width="32" height="32" viewBox="0 0 32 32"><defs><style>.a{fill:#525252;}.b{clip-path:url(#a);}</style><clipPath id="a"><rect class="a" width="32" height="32" transform="translate(1716 193)"/></clipPath></defs><g class="b" transform="translate(-1716 -193)"><path d="M28.083,1.742a.854.854,0,0,0-.772-.49H.854a.854.854,0,0,0-.659,1.4l10.17,12.336V26.359a.854.854,0,0,0,1.233.765l5.714-2.832a.853.853,0,0,0,.474-.764l.011-8.543L27.969,2.649A.853.853,0,0,0,28.083,1.742Zm-11.8,12.393a.853.853,0,0,0-.195.542L16.08,23l-4.008,1.986V14.678a.853.853,0,0,0-.195-.543L2.664,2.959H25.5Z" transform="translate(1717.918 194.768)"/></g></svg>