<svg xmlns="http://www.w3.org/2000/svg" xmlns:xlink="http://www.w3.org/1999/xlink" width="32" height="32" viewBox="0 0 32 32"><defs><style>.a{fill:#525252;}.b{clip-path:url(#a);}</style><clipPath id="a"><rect class="a" width="32" height="32" transform="translate(1659 193)"/></clipPath></defs><g class="b" transform="translate(-1659 -193)"><g transform="translate(1659 193)"><path d="M16.6,4.924H.94a.94.94,0,0,0,0,1.88H16.6a.94.94,0,1,0,0-1.88Z"/><path d="M15.839,12.854H.94a.94.94,0,0,0,0,1.88h14.9a.94.94,0,0,0,0-1.88Z"/><path d="M11.927,20.791H.94a.94.94,0,0,0,0,1.88H11.927a.94.94,0,1,0,0-1.88Z"/><path d="M31.093,20.594a3.1,3.1,0,0,0-3.821-.443V4.463a3.1,3.1,0,1,0-6.192,0V20.171a3.1,3.1,0,0,0-3.851,4.8L21.857,29.6a.941.941,0,0,0,.1.126,3.076,3.076,0,0,0,2.189.907c.076,0,.152,0,.228-.009a3.082,3.082,0,0,0,1.983-.9.949.949,0,0,0,.105-.127l4.627-4.627a3.1,3.1,0,0,0,0-4.378Zm-1.33,3.049L25.01,28.4a1.192,1.192,0,0,1-1.7,0l-4.753-4.753a1.216,1.216,0,1,1,1.719-1.719L21.356,23c.012.012.024.022.036.033l.032.029c.015.012.031.023.046.035l.027.02c.016.011.033.02.049.03l.029.017.049.024.034.016.048.017.039.014.048.012.042.01.054.008.037.005c.031,0,.062,0,.093,0h0c.031,0,.061,0,.092,0l.044-.006.047-.007.05-.012.039-.01.049-.017.038-.014.046-.021.037-.018.045-.027.033-.02c.018-.012.035-.025.053-.039l.021-.016a.949.949,0,0,0,.133-.133l.013-.017c.015-.019.029-.037.042-.057l.017-.028c.01-.017.021-.033.03-.051s.01-.021.015-.031.017-.035.024-.053.007-.02.011-.029.014-.038.02-.058,0-.018.007-.027.011-.041.015-.062,0-.018,0-.027.007-.042.009-.064,0-.02,0-.029,0-.041,0-.062V4.463a1.216,1.216,0,0,1,2.431,0V22.306c0,.031,0,.062,0,.093,0,.014,0,.027.006.04s0,.034.008.051.007.031.011.046.007.029.011.043.01.03.016.045.01.028.015.042.013.028.019.041.013.028.02.042.015.026.023.039.015.027.024.04.021.029.032.043.015.021.023.031a.95.95,0,0,0,.132.132l.029.022c.015.011.029.022.045.033l.038.023.041.024.039.019.044.02.039.014.048.017.038.01.051.013.043.007.048.007c.024,0,.048,0,.073,0h.039c.024,0,.049,0,.073,0l.048-.007.043-.007.051-.013.038-.01.049-.017.038-.014.044-.021.039-.019.042-.025.037-.022c.016-.011.031-.022.046-.034l.028-.021c.024-.02.048-.041.07-.063l1.046-1.046a1.216,1.216,0,0,1,1.719,1.719Z"/></g></g></svg>