<svg xmlns="http://www.w3.org/2000/svg" width="8.62" height="13.374" viewBox="0 0 8.62 13.374"><defs><style>.a{fill:#fff;}</style></defs><path class="a" d="M98.836,4.557V2.279a1.174,1.174,0,0,0,.784-1.1V.392A.392.392,0,0,0,99.228,0H91.392A.392.392,0,0,0,91,.392v.784a1.174,1.174,0,0,0,.784,1.1V4.53a1.969,1.969,0,0,0,1.1,1.762l.8.389-.811.4a1.946,1.946,0,0,0-1.094,1.758V11.1A1.174,1.174,0,0,0,91,12.2v.784a.392.392,0,0,0,.392.392h7.836a.392.392,0,0,0,.392-.392V12.2a1.174,1.174,0,0,0-.784-1.1V8.824a1.949,1.949,0,0,0-1.072-1.746l-.756-.384.767-.4A1.95,1.95,0,0,0,98.836,4.557ZM97.41,7.776a1.169,1.169,0,0,1,.643,1.048v2.2H97.16c-.276-.793-.936-2.377-1.85-2.377s-1.574,1.584-1.85,2.377h-.893V8.838a1.168,1.168,0,0,1,.656-1.055l1.237-.609.573.573a.392.392,0,0,0,.554,0l.6-.6ZM92.567,3.944V2.351h5.486V3.944Z" transform="translate(-91)"/></svg>